<svg width="170.000000" height="161.679565" viewBox="0 0 170 161.68" fill="none" xmlns="http://www.w3.org/2000/svg" xmlns:xlink="http://www.w3.org/1999/xlink">
	<desc>
			Created with Pixso.
	</desc>
	<defs/>
	<path id="Polygon 6" d="M0 80.83L16.23 130.8L58.73 161.67L111.26 161.67L153.76 130.8L170 80.83L153.76 30.87L111.26 0L58.73 0L16.23 30.87L0 80.83Z" fill="#C4C4C4" fill-opacity="0" fill-rule="evenodd"/>
	<path id="Polygon 6" d="M16.23 130.8L58.73 161.67L111.26 161.67L153.76 130.8L170 80.83L153.76 30.87L111.26 0L58.73 0L16.23 30.87L0 80.83L16.23 130.8ZM17.08 130.18L59.05 160.67L110.94 160.67L152.91 130.18L168.94 80.83L152.91 31.49L110.94 1L59.05 1L17.08 31.49L1.05 80.83L17.08 130.18Z" fill="#313F38" fill-opacity="1.000000" fill-rule="evenodd"/>
</svg>
