<svg width="149.178223" height="148.360840" viewBox="0 0 149.178 148.361" fill="none" xmlns="http://www.w3.org/2000/svg" xmlns:xlink="http://www.w3.org/1999/xlink">
	<desc>
			Created with Pixso.
	</desc>
	<defs/>
	<path id="Star 5" d="M74.58 0L69.13 49.32L44.08 6.48L59.15 53.76L18.85 24.81L51.85 61.87L3.25 51.82L48.48 72.25L0 82.83L49.62 83.11L9.63 112.5L55.08 92.56L30.5 135.67L63.91 98.98L58.99 148.36L74.58 101.25L90.18 148.36L85.26 98.98L118.67 135.67L94.09 92.56L139.54 112.5L99.55 83.11L149.17 82.83L100.69 72.25L145.91 51.82L97.32 61.87L130.32 24.81L90.01 53.76L105.09 6.48L80.04 49.32L74.58 0Z" fill="#FCD043" fill-opacity="1.000000" fill-rule="evenodd"/>
</svg>
